<?xml version="1.0" encoding="UTF-8"?>
<svg width="719.154639px" height="523.661591px" viewBox="0 0 719.154639 523.661591" version="1.1" xmlns="http://www.w3.org/2000/svg" xmlns:xlink="http://www.w3.org/1999/xlink">
    <title>Fic</title>
    <g id="Asset" stroke="none" stroke-width="1" fill="none" fill-rule="evenodd">
        <g id="1:1-copy" transform="translate(-179.343786, -223.000000)">
            <g id="Fic" transform="translate(179.343786, 223.000000)">
                <g id="Telinga-Kanan" transform="translate(475.000000, 0.000000)">
                    <path d="M0,124.464829 C10.6352122,105.924969 33.4579556,87.3366434 68.4682303,68.6998515 C93.6170942,55.3125203 132.905166,44.9398206 178.802272,27.1529502 C190.800434,22.5032071 209.137766,13.4522237 233.814267,0 C247.601429,52.8129165 247.601429,96.2314163 233.814267,130.255499 C223.589066,155.489344 188.892234,200.130683 165.377042,240.04317 C159.512334,249.997378 147.136849,256.819987 128.250589,260.510999 L0,124.464829 Z" id="Path-4-Copy-5" fill="#686659"></path>
                    <path d="M49.2804716,177.116003 L233.814267,0 C247.601429,52.8129165 247.601429,96.2314163 233.814267,130.255499 C223.589066,155.489344 188.892234,200.130683 165.377042,240.04317 C159.512334,249.997378 147.136849,256.819987 128.250589,260.510999 L49.2804716,177.116003 Z" id="Path-4-Copy-4" fill="#935A4F"></path>
                    <path d="M88.3643532,218.300818 C117.731485,211.561893 137.182552,199.094827 146.717555,180.899619 C156.252558,162.704411 164.02855,123.215332 170.045532,62.4323818 L49.2804716,177.116003 L88.3643532,218.300818 Z" id="Path-5-Copy-2" fill="#A96462"></path>
                </g>
                <g id="Telinga-Kanan-Copy" transform="translate(122.077319, 130.255499) scale(-1, 1) translate(-122.077319, -130.255499) ">
                    <path d="M0,124.464829 C10.6352122,105.924969 33.4579556,87.3366434 68.4682303,68.6998515 C93.6170942,55.3125203 132.905166,44.9398206 178.802272,27.1529502 C190.800434,22.5032071 209.137766,13.4522237 233.814267,0 C247.601429,52.8129165 247.601429,96.2314163 233.814267,130.255499 C223.589066,155.489344 188.892234,200.130683 165.377042,240.04317 C159.512334,249.997378 147.136849,256.819987 128.250589,260.510999 L0,124.464829 Z" id="Path-4-Copy-5" fill="#686659"></path>
                    <path d="M49.2804716,177.116003 L233.814267,0 C247.601429,52.8129165 247.601429,96.2314163 233.814267,130.255499 C223.589066,155.489344 188.892234,200.130683 165.377042,240.04317 C159.512334,249.997378 147.136849,256.819987 128.250589,260.510999 L49.2804716,177.116003 Z" id="Path-4-Copy-4" fill="#935A4F"></path>
                    <path d="M88.3643532,218.300818 C117.731485,211.561893 137.182552,199.094827 146.717555,180.899619 C156.252558,162.704411 164.02855,123.215332 170.045532,62.4323818 L49.2804716,177.116003 L88.3643532,218.300818 Z" id="Path-5-Copy-2" fill="#A96462"></path>
                </g>
                <path d="M361.0205,98.8777447 C224.615027,98.8777447 133.256402,156.996161 86.9446237,273.232992 C-9.92432422,440.185391 75.5583514,523.661591 343.392651,523.661591 C611.22695,523.661591 706.697713,440.185391 629.80494,273.232992 C587.020786,156.996161 497.425972,98.8777447 361.0205,98.8777447 Z" id="Muka" fill="#F3E4D2"></path>
                <g id="Mulut&amp;Hidung" transform="translate(243.656214, 390.000000)">
                    <path d="M72.9162788,66.0272216 L153.377285,66.0272216 C151.264017,86.0272216 137.853849,96.0272216 113.146782,96.0272216 C88.4397154,96.0272216 75.0295476,86.0272216 72.9162788,66.0272216 Z" id="Path-7-Copy" fill="#F6959A"></path>
                    <path d="M88.9162788,66.0272216 L138.225309,66.0272216 C136.930232,78.2838494 128.71206,84.4121633 113.570794,84.4121633 C98.429528,84.4121633 90.2113563,78.2838494 88.9162788,66.0272216 Z" id="Path-7" fill="#D36D7B"></path>
                    <path d="M50.9268293,87 C79.0529404,87 114.516257,57.5406876 114.516257,33.516301 C114.516257,9.49191436 79.0529404,0 50.9268293,0 C22.8007181,0 0,19.4756134 0,43.5 C0,67.5243866 22.8007181,87 50.9268293,87 Z" id="Oval" fill="#E0C3AF"></path>
                    <path d="M167.926829,87 C196.05294,87 218.853659,67.5243866 218.853659,43.5 C218.853659,19.4756134 196.05294,0 167.926829,0 C139.800718,0 98.8950513,9.49191436 98.8950513,33.516301 C98.8950513,57.5406876 139.800718,87 167.926829,87 Z" id="Oval-Copy-4" fill="#E0C3AF"></path>
                    <ellipse id="Oval" fill="#FCCFD2" transform="translate(80.965510, 54.502204) rotate(-17.000000) translate(-80.965510, -54.502204) " cx="80.9655103" cy="54.5022044" rx="41.5" ry="28"></ellipse>
                    <ellipse id="Oval-Copy-5" fill="#FCCFD2" transform="translate(144.194968, 55.746966) scale(-1, 1) rotate(-17.000000) translate(-144.194968, -55.746966) " cx="144.194968" cy="55.7469662" rx="41.5" ry="28"></ellipse>
                    <path d="M111.5,61 C122.821837,61 144.194968,62.379493 144.194968,47.1916624 C144.194968,32.0038317 122.821837,6 111.5,6 C100.178163,6 80.9655103,32.0038317 80.9655103,47.1916624 C80.9655103,62.379493 100.178163,61 111.5,61 Z" id="Oval" fill="#F69CA6"></path>
                </g>
                <g id="Path" transform="translate(136.153199, 98.877745)">
                    <path d="M224.867301,0 C185.094582,0 113.535106,11.0767264 108.335024,18.0443212 C103.134941,25.0119159 118.501965,52.0908945 126.183468,64.3836661 C147.79659,98.9713239 171.246478,119.720036 182.041523,140.209327 C203.98908,181.866388 202.496005,232.014766 221.068094,232.014766 C239.640183,232.014766 234.14225,183.701709 256.819118,140.209327 C267.305924,120.09649 291.713298,101.275577 312.345933,69.1581907 C321.457566,54.9747461 344.986228,22.7868056 333.801164,15.8019352 C322.616101,8.81706479 261.245077,0 224.867301,0 Z" id="Path-3-Copy" fill="#6C645B"></path>
                    <path d="M352,145.254466 C367.671401,128.319421 376.634287,108.573181 378.88866,86.0157469 C381.143033,63.4583123 374.795747,42.9820914 359.846801,24.5870841 C369.352935,29.0276999 376.827408,32.8432306 382.27022,36.0336761 C387.713032,39.2241217 395.929245,44.6060946 406.91886,52.179595 C417.828745,70.3385386 425.356797,87.4416239 429.503015,103.488851 C433.649233,119.536078 436.940019,144.304563 439.375372,177.794308 L352,145.254466 Z" id="Path-6" fill="#938074"></path>
                    <path d="M0,151.254466 C15.6714005,134.319421 24.6342873,114.573181 26.8886603,92.0157469 C29.1430334,69.4583123 23.164772,48.7319043 8.95387633,29.8365229 C18.2443689,34.57569 25.5931206,38.612752 31.0001314,41.9477089 C36.4071421,45.2826658 44.2975966,50.8658053 54.6714947,58.6971274 C65.7462901,76.5110494 73.356797,93.4416239 77.5030152,109.488851 C81.6492334,125.536078 84.940019,150.304563 87.3753719,183.794308 L0,151.254466 Z" id="Path-6-Copy" fill="#938074" transform="translate(43.687686, 106.815415) scale(-1, 1) translate(-43.687686, -106.815415) "></path>
                </g>
                <g id="Mata" transform="translate(125.324492, 234.000000)">
                    <path d="M385.008951,169 C428.079098,169 466.003142,125.055548 466.003142,81.9854003 C466.003142,38.915253 431.087889,4 388.017742,4 C344.947594,4 304.01476,38.915253 304.01476,81.9854003 C304.01476,105.900419 302.874117,136.249938 320.647585,153.031466 C334.883537,166.472907 365.853822,169 385.008951,169 Z" id="Oval-Copy-2" fill="#6A6059"></path>
                    <path d="M382.171161,145.483716 C413.099107,145.483716 440.331722,113.927946 440.331722,83 C440.331722,52.072054 415.259668,27 384.331722,27 C353.403776,27 324.010599,52.072054 324.010599,83 C324.010599,100.172971 323.191522,121.966449 335.95435,134.016981 C346.176947,143.669053 368.416186,145.483716 382.171161,145.483716 Z" id="Oval" fill="#010200"></path>
                    <path d="M81.0089507,165 C124.079098,165 162.003142,121.055548 162.003142,77.9854003 C162.003142,34.915253 127.087889,0 84.0177416,0 C40.9475943,0 0.014759586,34.915253 0.014759586,77.9854003 C0.014759586,101.900419 -1.12588308,132.249938 16.6475849,149.031466 C30.8835371,162.472907 61.8538221,165 81.0089507,165 Z" id="Oval-Copy-3" fill="#6A6059" transform="translate(81.001571, 82.500000) scale(-1, 1) translate(-81.001571, -82.500000) "></path>
                    <path d="M81.1711605,145.483716 C112.099107,145.483716 139.331722,113.927946 139.331722,83 C139.331722,52.072054 114.259668,27 83.3317224,27 C52.4037765,27 23.0105986,52.072054 23.0105986,83 C23.0105986,100.172971 22.1915224,121.966449 34.9543498,134.016981 C45.1769469,143.669053 67.4161859,145.483716 81.1711605,145.483716 Z" id="Oval-Copy" fill="#010200" transform="translate(81.165861, 86.241858) scale(-1, 1) translate(-81.165861, -86.241858) "></path>
                </g>
                <ellipse id="Oval" fill="#D8D8D8" cx="499.156214" cy="287" rx="6.5" ry="5"></ellipse>
                <ellipse id="Oval-Copy-6" fill="#D8D8D8" cx="213.156214" cy="287" rx="6.5" ry="5"></ellipse>
            </g>
        </g>
    </g>
</svg>